<svg version="1.2" xmlns="http://www.w3.org/2000/svg" viewBox="0 0 60 511" width="23" height="200"><style>.a{fill:#e6e6e6}.b{fill:#ccc}.c{fill:#d4aa00}.d{fill:#fc0}</style><path class="a" d="m36.4 120.9c0.8-0.1 1.5 0.5 1.5 1.3v372.3c0 0.4-0.2 0.8-0.5 1.1l0.5 0.7-9.2 12.6-9.3 12.6 0.2-24.5v-0.4q-0.2-0.3-0.2-0.6v-372.3c0-0.8 0.6-1.5 1.4-1.5z"/><path  d="m19.6 3.7l16.2-0.5 1.3 124-16.2 0.4z"/><path class="b" d="m37.8 126.7c0.4-0.1 0.7 0.5 0.7 1.3l-0.8 357c0 0.4 0.6-0.2 0 1v10.2l-3.2 4.7-6.8 9.4 0.7-22.8v-0.4q-0.1-0.3-0.1-0.6l1.2-357.2c0-0.8 0.3-1.5 0.7-1.6 0 0 7.6-1 7.6-1z"/><path class="c" d="m6.1 121.9h45.9l-0.1 9.8-45.9-0.1z"/><path class="d" d="m29.1 17.9q0.7 0.1 1.4 0.2 0.7 0.2 1.3 0.4 0.6 0.2 1.1 0.6-0.4 0.4-1 0.7-0.6 0.4-1.3 0.6-0.7 0.3-1.5 0.4-0.7 0.2-1.5 0.2-0.8 0.1-1.5 0-0.8 0-1.4-0.2-0.7-0.1-1.4-0.3-0.6-0.3-1.1-0.6 0.5-0.4 1.1-0.7 0.6-0.4 1.3-0.7 0.7-0.2 1.4-0.4 0.8-0.1 1.6-0.2 0.7 0 1.5 0z"/><path class="d" d="m29.4 38.5q0.7 0.1 1.4 0.2 0.7 0.2 1.3 0.4 0.6 0.2 1.1 0.5-0.4 0.5-1 0.8-0.6 0.3-1.3 0.6-0.7 0.3-1.5 0.4-0.7 0.2-1.5 0.2-0.8 0.1-1.5 0-0.8 0-1.5-0.2-0.7-0.1-1.3-0.3-0.6-0.3-1.1-0.6 0.5-0.4 1-0.8 0.6-0.3 1.3-0.6 0.7-0.2 1.5-0.4 0.8-0.1 1.6-0.2 0.7 0 1.5 0z"/><path class="d" d="m29.4 59.6q0.8 0.1 1.5 0.2 0.7 0.2 1.3 0.4 0.6 0.2 1.1 0.6-0.5 0.4-1.1 0.7-0.6 0.4-1.2 0.6-0.7 0.3-1.5 0.4-0.8 0.2-1.6 0.2-0.7 0.1-1.5 0-0.7 0-1.4-0.2-0.7-0.1-1.3-0.3-0.6-0.3-1.1-0.6 0.4-0.4 1-0.7 0.6-0.4 1.3-0.7 0.7-0.2 1.5-0.4 0.7-0.1 1.5-0.2 0.8 0 1.5 0z"/><path class="d" d="m29.4 79.5q0.7 0 1.4 0.2 0.7 0.1 1.3 0.4 0.6 0.2 1.1 0.5-0.4 0.4-1 0.8-0.6 0.3-1.3 0.6-0.7 0.2-1.5 0.4-0.7 0.2-1.5 0.2-0.8 0.1-1.5 0-0.8 0-1.4-0.2-0.7-0.1-1.4-0.4-0.6-0.2-1.1-0.5 0.5-0.4 1.1-0.8 0.6-0.3 1.3-0.6 0.7-0.3 1.4-0.4 0.8-0.2 1.6-0.2 0.7-0.1 1.5 0z"/><path class="d" d="m30 100.8q0.7 0 1.4 0.2 0.7 0.1 1.3 0.4 0.6 0.2 1.1 0.5-0.4 0.4-1 0.8-0.6 0.3-1.3 0.6-0.7 0.3-1.5 0.4-0.7 0.2-1.5 0.2-0.8 0.1-1.5 0-0.8 0-1.5-0.2-0.7-0.1-1.3-0.4-0.6-0.2-1.1-0.5 0.5-0.4 1.1-0.8 0.6-0.3 1.2-0.6 0.7-0.2 1.5-0.4 0.8-0.2 1.6-0.2 0.7-0.1 1.5 0z"/></svg>